<?xml version="1.0" encoding="UTF-8"?>
<svg id="Layer_1" data-name="Layer 1" xmlns="http://www.w3.org/2000/svg" viewBox="0 0 339.57 314.08">
  <defs>
    <style>
      .cls-1 {
        fill: #462d84;
        stroke: #231f20;
        stroke-miterlimit: 10;
      }
    </style>
  </defs>
  <path class="cls-1" d="M72.56,3.47c8.85-.37,17.71-.74,26.55-.19,29.25,1.81,56.87,13.53,83.53,25.71,12.77,5.84,25.75,12.01,35.68,21.93,13,12.98,19.43,30.98,29.27,46.49,6.92,10.91,15.61,20.69,25.64,28.84,12.16,9.88,26.32,17.44,36.8,29.08,15.94,17.72,21.21,42.31,25.88,65.68,2.11,10.55,4.22,21.37,2.56,31.99-4.02,25.7-28.82,43.1-53.51,51.3-45.73,15.18-95.59,9.16-142.95,.29-26.34-4.93-52.56-10.7-78.21-18.45-7.61-2.3-15.25-4.81-22-9.02-20.29-12.68-28.48-37.86-33.16-61.32C2.96,187.27,.23,158.15,.52,129.05c.12-11.8,.77-23.82,4.91-34.88,5.14-13.76,15.53-25.66,17.44-40.22,1.41-10.74-12.02-46.27-1.04-52.61,4.68-2.7,13.35,1.94,18.13,2.67,10.57,1.62,21.96-.1,32.6-.54Z"/>
</svg>