<?xml version="1.0" encoding="UTF-8"?>
<svg id="Layer_1" data-name="Layer 1" xmlns="http://www.w3.org/2000/svg" viewBox="0 0 583.37 572.36">
  <defs>
    <style>
      .cls-1 {
        fill: #462d84;
        stroke: #231f20;
        stroke-miterlimit: 10;
      }
    </style>
  </defs>
  <path class="cls-1" d="M74.1,26.15C40.49,44.47,18.74,79.84,8.91,116.84-.93,153.83-.23,192.73,1.61,230.97c1.42,29.55,3.6,59.64,14.58,87.11,9,22.5,23.54,42.3,38.58,61.3,14.73,18.61,30.84,37.31,52.47,47.09,31.66,14.31,70.06,7.22,101.2,22.61,26.21,12.96,42.64,39.47,65.15,58.14,15,12.44,32.61,21.29,50.18,29.71,34.81,16.67,71.16,32.36,109.68,34.69s80.08-11.09,102.29-42.65c27.33-38.83,46.41-87.66,47.09-135.14,.89-62.16-23.7-121.4-44.26-180.07-18.99-54.21-34.83-109.52-47.4-165.56-1.45-6.47-2.96-13.17-6.94-18.47-2.81-3.74-6.68-6.54-10.64-9.03C433.99-4.23,383.17-2.72,337.46,7.29s-89.87,27.65-136.41,32.48c-42.96,4.46-84.31-6.71-126.95-13.63Z"/>
</svg>